<svg width="64" height="64" viewBox="0 0 64 64" fill="none" xmlns="http://www.w3.org/2000/svg">
<rect width="64" height="64" fill="white"/>
<path d="M60 32V60H32C16.536 60 4 47.464 4 32C4 16.536 16.536 4 32 4C47.464 4 60 16.536 60 32Z" stroke="#4E90FE" stroke-width="8"/>
<path d="M41.272 25.7864C40.36 25.1288 39.2144 24.8 37.8352 24.8C36.7864 24.8 35.9008 25.0312 35.1816 25.4944C34.04 26.2192 33.4336 27.4504 33.36 29.1864H36.0056C36.0056 28.68 36.1536 28.1944 36.448 27.724C36.7432 27.2552 37.244 27.0208 37.9504 27.0208C38.6688 27.0208 39.164 27.2112 39.4336 27.5912C39.7048 27.9728 39.84 28.3944 39.84 28.8568C39.84 29.26 39.6384 29.6288 39.3944 29.9632C39.249 30.1708 39.0703 30.353 38.8656 30.5024C38.8656 30.5024 37.4312 31.4224 36.8016 32.1616C36.4368 32.5896 36.404 33.232 36.3712 34.152C36.3696 34.2176 36.3944 34.3536 36.6232 34.3536H38.68C38.8848 34.3536 38.9272 34.2024 38.9296 34.1344C38.944 33.8 38.9808 33.628 39.0424 33.4344C39.1576 33.0688 39.4728 32.7504 39.8256 32.4752L40.5536 31.9736C41.2112 31.4608 41.7352 31.0408 41.9672 30.7112C42.3624 30.1704 42.6408 29.5032 42.6408 28.7112C42.64 27.4192 42.184 26.4456 41.272 25.7864ZM37.7928 35.9392C36.8816 35.9112 36.1296 36.5424 36.1008 37.5312C36.0728 38.5184 36.7872 39.172 37.6992 39.1984C38.6504 39.2264 39.3824 38.6168 39.412 37.628C39.4392 36.6392 38.7448 35.9672 37.7928 35.9392Z" fill="#4E90FE"/>
<circle cx="31.5" cy="37.5" r="1.5" fill="#4E90FE"/>
<circle cx="25.5" cy="37.5" r="1.5" fill="#4E90FE"/>
</svg>
